<?xml version="1.0"?>
<svg xmlns="http://www.w3.org/2000/svg" viewBox="0 0 1.97754 3.40576">
 <g>
  <rect height="3.40576" opacity="0" width="1.97754" x="0" y="0"/>
  <path d="M1.97754 1.70166C1.97754 1.64795 1.95801 1.59912 1.9165 1.55762L0.407715 0.0585938C0.371094 0.0195312 0.322266 0 0.266113 0C0.151367 0 0.0634766 0.0854492 0.0634766 0.200195C0.0634766 0.253906 0.0878906 0.305176 0.12207 0.344238L1.48682 1.70166L0.12207 3.05908C0.0878906 3.09814 0.0634766 3.14697 0.0634766 3.20312C0.0634766 3.31787 0.151367 3.40332 0.266113 3.40332C0.322266 3.40332 0.371094 3.38379 0.407715 3.34473L1.9165 1.8457C1.95801 1.8042 1.97754 1.75537 1.97754 1.70166Z" fill="currentColor" fill-opacity="0.85"/>
 </g>
</svg>
