<?xml version="1.0"?>
<svg xmlns="http://www.w3.org/2000/svg" viewBox="0 0 4.36768 3.94287">
 <g>
  <rect height="3.94287" opacity="0" width="4.36768" x="0" y="0"/>
  <path d="M1.97021 3.94043C3.05908 3.94043 3.94287 3.05908 3.94287 1.97021C3.94287 0.881348 3.05908 0 1.97021 0C0.883789 0 0 0.881348 0 1.97021C0 3.05908 0.883789 3.94043 1.97021 3.94043ZM1.97021 3.56934C1.08643 3.56934 0.373535 2.854 0.373535 1.97021C0.373535 1.08643 1.08643 0.371094 1.97021 0.371094C2.854 0.371094 3.56934 1.08643 3.56934 1.97021C3.56934 2.854 2.854 3.56934 1.97021 3.56934Z" fill="currentColor"/>
  <path d="M1.93115 2.37061C2.04102 2.37061 2.10693 2.30225 2.10693 2.2168C2.10693 2.21191 2.10693 2.20703 2.10693 2.20215C2.10693 2.09961 2.17041 2.03369 2.2998 1.94824C2.48047 1.83105 2.62695 1.71875 2.62695 1.47705C2.62695 1.14014 2.32666 0.969238 1.99463 0.969238C1.65771 0.969238 1.43555 1.12061 1.37695 1.28906C1.36475 1.32324 1.35742 1.35742 1.35742 1.3916C1.35742 1.48682 1.43555 1.53809 1.50635 1.53809C1.57959 1.53809 1.62354 1.50635 1.66504 1.45508L1.70654 1.40625C1.78955 1.30371 1.875 1.26221 1.97998 1.26221C2.14111 1.26221 2.24609 1.35498 2.24609 1.49414C2.24609 1.62354 2.16309 1.68213 1.99951 1.79443C1.86768 1.88721 1.75537 1.98975 1.75537 2.18506C1.75537 2.1875 1.75537 2.19482 1.75537 2.19727C1.75537 2.31201 1.81641 2.37061 1.93115 2.37061ZM1.92627 2.95654C2.04346 2.95654 2.14844 2.86133 2.14844 2.7417C2.14844 2.61963 2.0459 2.52686 1.92627 2.52686C1.8042 2.52686 1.70166 2.62207 1.70166 2.7417C1.70166 2.85889 1.80664 2.95654 1.92627 2.95654Z" fill="currentColor"/>
 </g>
</svg>
