<?xml version="1.0" encoding="UTF-8" standalone="no"?>
<!DOCTYPE svg PUBLIC "-//W3C//DTD SVG 1.1//EN" "http://www.w3.org/Graphics/SVG/1.1/DTD/svg11.dtd">
<svg width="100%" height="100%" viewBox="0 0 4096 4096" version="1.1" xmlns="http://www.w3.org/2000/svg" xmlns:xlink="http://www.w3.org/1999/xlink" xml:space="preserve" xmlns:serif="http://www.serif.com/" style="fill-rule:evenodd;clip-rule:evenodd;stroke-linejoin:round;stroke-miterlimit:2;">
    <path d="M2988.46,570.683C2987.77,571.118 2987.07,571.551 2986.38,571.982C2822.18,674.017 2686.12,825.272 2587.41,990.837C2564.71,1028.92 2543.4,1067.82 2521.47,1106.35C2520.59,1106.66 2519.72,1107.03 2518.87,1107.45C2468.06,1132.27 2411.76,1137.45 2356.08,1134.21C2334.29,1132.93 2312.57,1131.67 2291.41,1125.89C2278.1,1122.25 2264.34,1130.1 2260.7,1143.41C2257.06,1156.72 2264.91,1170.48 2278.22,1174.12C2302.76,1180.83 2327.9,1182.65 2353.17,1184.12C2396.41,1186.64 2439.92,1184.36 2481.62,1173.86C2472.95,1187.82 2464.04,1201.64 2454.77,1215.24C2381.55,1322.75 2297.18,1424.75 2242.4,1543.59C2221.44,1589.05 2212.26,1638.38 2194.93,1685.14C2122.37,1881 2040.17,2079.38 1872.81,2214.63C1862.08,2223.3 1860.41,2239.05 1869.08,2249.78C1877.75,2260.51 1893.51,2262.19 1904.24,2253.51C2078.73,2112.5 2166.16,1906.72 2241.82,1702.51C2258.7,1656.95 2267.39,1608.81 2287.8,1564.52C2341.43,1448.19 2424.42,1348.63 2496.1,1243.39C2545.65,1170.64 2585.33,1091.96 2630.36,1016.44C2725.03,857.64 2855.28,712.317 3012.77,614.45C3038.12,598.695 3064.48,578.563 3093.73,570.158C3093.71,570.787 3093.68,571.398 3093.63,571.97C3093,579.499 3091.32,588.049 3089.15,596.903C3080.77,631.21 3065.53,669.337 3063.29,679.597C3043.9,768.721 3042.35,872.302 3051.21,962.909C3064.07,1094.35 3100.76,1261.49 3099.35,1416.88C3098.45,1515.96 3082.11,1610.22 3031.48,1685.83C2989.67,1748.27 2929.72,1792.26 2866.57,1831.17C2854.83,1838.41 2851.17,1853.83 2858.41,1865.57C2865.65,1877.32 2881.06,1880.98 2892.81,1873.74C2907.93,1864.42 2922.86,1854.8 2937.44,1844.74C2946.54,1931.94 2931.54,2068.91 2899.43,2130.68C2880.18,2167.69 2846.24,2195.8 2829.22,2233.59C2812.3,2271.14 2814.34,2312.18 2814.53,2353.5C2814.68,2385.99 2813.62,2418.87 2791.33,2448.92C2767.08,2481.62 2733.99,2492.59 2699.46,2501.09C2657.04,2511.53 2612.4,2518.42 2572.98,2542.07C2537.11,2563.58 2506.71,2592.18 2476.14,2620.61C2448.38,2646.43 2420.48,2672.15 2386.81,2690.51C2233.89,2773.91 1968.49,2766.59 1808.4,2709.97L1791.73,2757.11C1963.07,2817.71 2247.07,2823.67 2410.75,2734.41C2448.12,2714.03 2479.38,2685.88 2510.19,2657.22C2538.21,2631.17 2565.83,2604.66 2598.7,2584.94C2633.72,2563.94 2673.72,2558.92 2711.41,2549.64C2756.99,2538.42 2799.47,2521.87 2831.49,2478.7C2860.93,2439.01 2864.73,2396.18 2864.53,2353.26C2864.38,2319.17 2860.85,2285.11 2874.81,2254.12C2891.45,2217.18 2924.97,2189.93 2943.79,2153.74C2961.99,2118.73 2975.36,2061.95 2982.75,2001.89C3023.03,2103.99 3071.11,2190.86 3109.11,2281.27C3148.27,2374.46 3176.46,2471.51 3172.2,2594.61C3168.01,2715.87 3110.89,2834.86 3053.62,2939.4C2867.86,3278.49 2650.36,3361.71 2279.19,3386.7C2175.2,3393.7 2071.62,3401.7 1967.34,3403.03C1443.25,3409.74 990.874,3296.47 603.728,2929.14C478.154,2809.99 365.438,2669.59 293.076,2511.38C223.489,2359.24 180.455,2146.41 160.88,2033.07C154.142,1994.06 135.391,1935.95 136.78,1892.59C137.323,1875.62 140.121,1860.75 156.354,1857.45C177.674,1853.11 205.637,1866.19 235.38,1882.46C289.385,1912.02 346.52,1956.02 381.626,1973.88C453.38,2010.36 532.098,2047.83 610.596,2066.66C991.823,2158.08 1504.44,2080.15 1834.65,1862.78C1940.44,1793.15 2017.28,1690.42 2061.53,1571.75C2102.08,1462.96 2130.98,1340.79 2109.82,1224.32C2093.27,1133.27 2038.19,1058.27 2001.02,975.231C1917.25,788.047 1885.34,534.728 2006.08,355.751C2204.15,62.152 2579.11,-66.497 2856.57,199.972C2941.07,281.118 3001.39,413.236 2990.49,545.766L2988.44,570.681L2988.46,570.683ZM2628.6,392.785C2600.24,385.627 2569.36,410.903 2559.7,449.195C2550.03,487.487 2565.22,524.386 2593.59,531.545C2621.96,538.703 2652.84,513.426 2662.5,475.135C2672.16,436.843 2656.97,399.944 2628.6,392.785Z" style="fill:rgb(254,244,236);"/>
    <path d="M3112.38,689.229C3157.06,728.619 3223.24,778.452 3275.09,787.476C3303.12,792.356 3331.95,795.872 3360.48,795.114C3375.17,794.724 3392.37,792.856 3408.88,794.106C3420.31,794.972 3431.59,797.041 3439.84,805.105C3461.19,825.99 3458.88,848.19 3448.17,868.694C3438.76,886.711 3423.94,903.642 3409.58,918.643C3347.75,983.24 3280.1,1032.14 3190.84,1050.67C3165.2,1056 3139.14,1054.66 3113.12,1056.01C3108.3,1021.8 3104,988.947 3100.97,958.043C3092.6,872.395 3093.82,774.475 3112.15,690.23C3112.22,689.921 3112.3,689.587 3112.38,689.229Z" style="fill:rgb(255,144,0);"/>
    <path d="M1818.31,3451.56C1803.91,3521.75 1787.2,3591.37 1773.88,3661.83C1770.08,3681.97 1763.83,3705.74 1763.55,3728.34C1763.33,3746.52 1766.79,3764 1776.34,3779.28C1780.12,3785.33 1784.52,3790.66 1789.44,3795.35C1806.49,3827.43 1826.8,3853.85 1855.88,3876.28C1864.63,3883.01 1877.2,3881.39 1883.93,3872.65C1890.67,3863.9 1889.05,3851.34 1880.31,3844.6C1871.78,3838.02 1864.17,3831.01 1857.27,3823.54C1888.01,3827.25 1921.57,3824.23 1947.14,3822.97C1957.76,3822.45 1974.34,3824.45 1987.44,3830.53C1993.03,3833.12 1998.35,3836.06 2000.18,3841.21C2001.58,3845.15 1999.81,3848.45 1997.78,3851.76C1994.79,3856.65 1990.72,3861.35 1986.59,3866.23C1971.03,3884.62 1956.3,3904.94 1959.55,3931.22C1961.06,3943.48 1967.65,3954.99 1975.39,3966.01C1978.5,3970.44 1981.76,3974.8 1984.32,3979.28C1986.05,3982.31 1987.96,3985.23 1987.18,3988.65C1984.06,4002.48 1972.38,4012.62 1958.56,4020.73C1933.25,4035.59 1899.73,4042.79 1877.49,4043.17C1821.93,4044.12 1802.45,4029.99 1753.18,4014.22C1716.89,4002.59 1671.12,3992.18 1630.57,3974.41C1594.4,3958.56 1562.13,3937.03 1548.24,3900.72C1528.12,3848.16 1555.8,3819.27 1587.67,3780.41C1604.96,3759.33 1620.93,3737.11 1636.24,3714.57C1689.61,3635.89 1717.4,3541.47 1722.67,3446.72C1754.27,3448.87 1786.15,3450.47 1818.31,3451.56Z" style="fill:rgb(255,144,0);"/>
    <path d="M2640.32,3376.47C2639.8,3394.58 2640.24,3412.77 2640.53,3430.74C2641.41,3485.77 2644.8,3533.53 2672,3570.31C2672.63,3609.53 2683.07,3649.33 2714.53,3675.49C2724.1,3683.45 2735.7,3689.03 2746.88,3694.29C2756.87,3698.99 2768.79,3694.69 2773.48,3684.7C2778.18,3674.71 2773.88,3662.78 2763.89,3658.09C2755.74,3654.26 2747.08,3650.54 2740.11,3644.74C2728.48,3635.06 2721.42,3622.56 2717.28,3608.86C2722.84,3611.93 2728.8,3614.85 2735.2,3617.6C2751.05,3624.43 2768.76,3629.01 2786.09,3629.62C2827.46,3631.09 2866.33,3619.49 2905.2,3607.55C2911.88,3605.49 2920.43,3602.88 2928.97,3601.93C2934.06,3601.36 2939.24,3600.83 2943.14,3603.34C2949.18,3607.22 2949.74,3612.4 2949.48,3617.68C2949.24,3622.32 2948.49,3627.07 2947.88,3631.82C2945.72,3648.48 2945.87,3664.86 2955.78,3679.2C2966.63,3694.91 2986.44,3705.09 3004.3,3715.92C3013.68,3721.61 3023.48,3726.64 3023.76,3738.01C3023.79,3739.2 3022.52,3739.73 3021.59,3740.6C3020.1,3742.01 3018.33,3743.3 3016.4,3744.56C3010.6,3748.33 3003.51,3751.61 2996.18,3754.82C2982.91,3760.62 2968.92,3766.13 2958.12,3772.34C2947.93,3778.19 2940.19,3785.02 2935.73,3792.35C2920.66,3817.08 2929.21,3836.55 2943.57,3854.39C2947.52,3859.3 2951.93,3864.02 2955.55,3868.84C2957.22,3871.07 2959.26,3872.94 2959.31,3875.4C2959.35,3877.54 2957.16,3879.08 2954.43,3881.67C2947.43,3888.35 2940.43,3888.84 2933.02,3888.23C2924.46,3887.53 2915.5,3885.69 2905.79,3884.92C2893.65,3883.95 2881.15,3885.39 2869.08,3886.59C2802.73,3893.17 2735.14,3896.51 2668.39,3895.25C2631.79,3894.56 2600.27,3899.1 2574.75,3869.74C2551.71,3843.23 2530.31,3801.78 2541.25,3765.68C2546.88,3747.11 2556.94,3730.23 2566.08,3713.03C2576.95,3692.56 2586.61,3671.68 2589.68,3648.37C2599.93,3570.43 2574.7,3479.12 2562.67,3402.29C2562.46,3400.97 2562.13,3399.7 2561.69,3398.5C2588.83,3392.08 2615.01,3384.78 2640.32,3376.47Z" style="fill:rgb(255,144,0);"/>
    <path d="M3913.14,147.09C3940,150.087 3955.46,209.316 3947.66,279.272C3939.85,349.229 3911.71,403.592 3884.85,400.595C3857.99,397.598 3842.53,338.369 3850.34,268.412C3858.14,198.456 3886.28,144.093 3913.14,147.09Z" style="fill:rgb(202,241,248);"/>
    <path d="M3747.38,175.195C3736.45,201.063 3733.22,229.141 3733.66,257.481C3734.54,314.319 3745.39,379.539 3784.34,423.621L3550.02,438.361C3549.76,438.042 3549.47,437.732 3549.17,437.433C3512.28,400.527 3493.74,347.833 3491.23,296.089C3490.53,281.584 3492.16,267.235 3493.41,252.816L3747.38,175.195Z" style="fill:rgb(105,63,35);"/>
    <path d="M3410.24,278.234L3464.53,261.642C3463.51,273.55 3462.68,285.449 3463.26,297.443C3465.74,348.62 3482.48,400.455 3514.52,440.595L3463.1,443.83C3460.8,434.116 3455.88,424.986 3449.94,417.638C3427.68,390.098 3417.12,356.605 3411.15,317.801C3408,297.339 3410.19,287.55 3410.52,282.098L3410.24,278.234Z" style="fill:rgb(250,211,48);"/>
    <path d="M3076.87,364.398L3083.42,362.707C3104.78,357.192 3141.69,347.958 3163.24,343.215C3209.44,333.046 3255.62,321.432 3300.52,306.486C3313.94,302.017 3334.53,292.413 3353.72,286.95C3363.71,284.108 3373.14,281.993 3380.16,284.132C3380.8,284.327 3381.48,284.544 3382.13,284.764C3381.98,286.39 3381.83,288.276 3381.71,290.138C3381.25,297.271 3381.21,307.366 3383.47,322.057C3390.25,366.141 3402.88,403.949 3428.16,435.237C3433.09,441.334 3437.56,449.505 3436.33,457.787C3435.6,462.72 3432.47,467.367 3426.6,471.6C3420.32,476.135 3410.32,478.464 3399.52,480.211C3380.14,483.346 3358.24,483.728 3344.49,484.571C3331.61,485.362 3221.48,491.754 3213.54,492.628C3182.29,496.067 3144.2,498.271 3112.77,498.017L3101.21,497.923C3102.27,478.092 3100.63,453.18 3095.47,426.587C3090.88,402.91 3084.2,381.509 3076.87,364.398Z" style="fill:rgb(250,211,48);"/>
    <path d="M3852.34,143.117C3834.15,172.822 3820.18,214.914 3814.87,262.505C3808.46,319.944 3816.12,372.352 3832.9,406.192C3835.4,411.228 3838.1,415.86 3841,420.056L3822.73,421.205L3820.03,419.067C3772.63,381.461 3762.54,314.049 3761.66,257.045C3761.2,227.476 3764.88,198.119 3780.12,172.273L3785.21,163.633L3852.34,143.117Z" style="fill:rgb(250,211,48);"/>
    <path d="M3913.45,425.463C3911.39,419.834 3905.81,415.979 3899.53,416.374L3854.19,419.226C3850.04,414.163 3846.26,408.114 3842.86,401.256C3826.8,368.878 3819.78,318.695 3825.91,263.737C3831.72,211.705 3848.08,166.447 3869.15,137.977L3904.46,127.187C3911.79,124.947 3915.92,117.176 3913.68,109.845C3913.45,109.104 3913.17,108.394 3912.84,107.721C3914.79,107.598 3916.75,107.642 3918.72,107.861C3934.77,109.652 3948,122.787 3957.94,142.841C3973.99,175.219 3981.02,225.402 3974.88,280.36C3968.75,335.319 3950.84,382.719 3928.04,410.762C3923.35,416.542 3918.46,421.494 3913.45,425.463ZM3914.37,136.048C3903.3,134.812 3891.65,139.788 3881.06,151.192C3862.01,171.708 3845.08,215.292 3839.29,267.18C3833.5,319.069 3840.41,365.313 3854.47,389.523C3862.28,402.98 3872.55,410.402 3883.62,411.637C3894.69,412.873 3906.34,407.897 3916.93,396.493C3935.98,375.977 3952.91,332.393 3958.7,280.505C3964.49,228.616 3957.58,182.372 3943.52,158.162C3935.71,144.704 3925.45,137.283 3914.37,136.048Z"/>
    <path d="M3913.45,425.463C3911.39,419.834 3905.81,415.979 3899.53,416.374L3854.19,419.226C3850.04,414.163 3846.26,408.114 3842.86,401.256C3826.8,368.878 3819.78,318.695 3825.91,263.737C3831.72,211.705 3848.08,166.447 3869.15,137.977L3904.46,127.187C3911.79,124.947 3915.92,117.176 3913.68,109.845C3913.45,109.104 3913.17,108.394 3912.84,107.721C3914.79,107.598 3916.75,107.642 3918.72,107.861C3934.77,109.652 3948,122.787 3957.94,142.841C3973.99,175.219 3981.02,225.402 3974.88,280.36C3968.75,335.319 3950.84,382.719 3928.04,410.762C3923.35,416.542 3918.46,421.494 3913.45,425.463ZM3914.37,136.048C3903.3,134.812 3891.65,139.788 3881.06,151.192C3862.01,171.708 3845.08,215.292 3839.29,267.18C3833.5,319.069 3840.41,365.313 3854.47,389.523C3862.28,402.98 3872.55,410.402 3883.62,411.637C3894.69,412.873 3906.34,407.897 3916.93,396.493C3935.98,375.977 3952.91,332.393 3958.7,280.505C3964.49,228.616 3957.58,182.372 3943.52,158.162C3935.71,144.704 3925.45,137.283 3914.37,136.048Z" style="fill:none;stroke:black;stroke-width:0.56px;"/>
    <path d="M3013.26,355.279C3015.6,347.857 3018.99,343.261 3023.37,342.413C3037.99,339.578 3058.08,379.664 3068.2,431.875C3076.64,475.369 3075.51,513.644 3066.44,526.85C3062.9,528.24 3059.39,529.741 3055.91,531.334C3051.41,529.949 3046.55,525.167 3041.74,517.747C3042.1,461.932 3031.67,406.754 3013.26,355.279Z" style="fill:rgb(46,62,72);"/>
    <g transform="matrix(0.427295,-0.0828506,0.21083,1.08734,1596.59,122.643)">
        <path d="M3122,414.921L3149.09,416.732L3170.66,421.103L3188.82,427.558C3194.94,430.301 3201.01,433.707 3206.64,437.801C3229.66,454.552 3247.82,488.133 3247.82,527C3247.82,565.867 3229.66,599.448 3206.64,616.199C3201.01,620.293 3194.94,623.699 3188.82,626.442L3170.66,632.897L3149.09,637.268L3122,639.079L3094.91,637.268L3073.34,632.897L3055.18,626.442C3049.06,623.699 3042.99,620.293 3037.36,616.199C3014.34,599.448 2996.18,565.867 2996.18,527C2996.18,488.133 3014.34,454.552 3037.36,437.801C3042.99,433.707 3049.06,430.301 3055.18,427.558L3073.34,421.103L3094.91,416.732L3122,414.921ZM3122,440C3087.78,440 3060,478.983 3060,527C3060,575.017 3087.78,614 3122,614C3156.22,614 3184,575.017 3184,527C3184,478.983 3156.22,440 3122,440Z"/>
    </g>
    <path d="M3040.32,549.865L3038.27,574.781L2988.44,570.681L2990.49,545.766C3001.39,413.236 2941.07,281.118 2856.57,199.972C2579.11,-66.497 2204.15,62.152 2006.08,355.751C1885.34,534.728 1917.25,788.047 2001.02,975.231C2038.19,1058.27 2093.27,1133.27 2109.82,1224.32C2130.98,1340.79 2102.08,1462.96 2061.53,1571.75C2017.28,1690.42 1940.44,1793.15 1834.65,1862.78C1504.44,2080.15 991.823,2158.08 610.596,2066.66C532.098,2047.83 453.38,2010.36 381.626,1973.88C346.52,1956.02 289.385,1912.02 235.38,1882.46C205.637,1866.19 177.674,1853.11 156.354,1857.45C140.121,1860.75 137.323,1875.62 136.78,1892.59C135.391,1935.95 154.142,1994.06 160.88,2033.07C180.455,2146.41 223.489,2359.24 293.076,2511.38C365.438,2669.59 478.154,2809.99 603.728,2929.14C990.874,3296.47 1443.25,3409.74 1967.34,3403.03C2071.62,3401.7 2175.2,3393.7 2279.19,3386.7C2650.36,3361.71 2867.86,3278.49 3053.62,2939.4C3110.89,2834.86 3168.01,2715.87 3172.2,2594.61C3176.46,2471.51 3148.27,2374.46 3109.11,2281.27C3068.51,2184.68 3016.41,2092.12 2974.6,1980.72L2965.82,1957.32L3012.63,1939.75L3021.41,1963.15C3106.01,2188.58 3231.1,2338.12 3222.17,2596.34C3217.72,2725.27 3158.37,2852.27 3097.47,2963.43C2901.74,3320.71 2673.64,3410.26 2282.55,3436.59C2177.65,3443.65 2073.17,3451.68 1967.98,3453.03C1430.23,3459.91 966.548,3342.31 569.313,2965.41C439.153,2841.91 322.612,2696.17 247.607,2532.18C176.217,2376.1 131.692,2157.86 111.609,2041.58C104.395,1999.81 85.319,1937.41 86.805,1890.99C88.181,1848.04 105.306,1816.81 146.383,1808.45C176.464,1802.33 217.416,1815.64 259.382,1838.6C312.914,1867.89 369.492,1911.61 404.291,1929.31C472.641,1964.07 547.483,2000.1 622.256,2018.04C991.273,2106.53 1487.52,2031.42 1807.16,1821.02C1904.05,1757.25 1974.16,1662.97 2014.68,1554.28C2052.17,1453.71 2080.19,1340.94 2060.62,1233.26C2044.81,1146.21 1990.91,1075.05 1955.38,995.656C1865.06,793.838 1834.45,520.757 1964.63,327.788C2180.18,8.275 2589.25,-126.078 2891.21,163.909C2985.49,254.452 3052.49,401.988 3040.32,549.865Z"/>
    <path d="M3093.73,570.158C3064.48,578.563 3038.12,598.695 3012.77,614.45C2855.28,712.317 2725.03,857.64 2630.36,1016.44C2585.33,1091.96 2545.65,1170.64 2496.1,1243.39C2424.42,1348.63 2341.43,1448.19 2287.8,1564.52C2267.39,1608.81 2258.7,1656.95 2241.82,1702.51C2166.16,1906.72 2078.73,2112.5 1904.24,2253.51C1893.51,2262.19 1877.75,2260.51 1869.08,2249.78C1860.41,2239.05 1862.08,2223.3 1872.81,2214.63C2040.17,2079.38 2122.37,1881 2194.93,1685.14C2212.26,1638.38 2221.44,1589.05 2242.4,1543.59C2297.18,1424.75 2381.55,1322.75 2454.77,1215.24C2503.76,1143.33 2542.9,1065.49 2587.41,990.837C2686.12,825.272 2822.18,674.017 2986.38,571.982C3019.29,551.532 3054.46,526.461 3093.22,518.89C3096.11,518.325 3098.82,518.023 3101.35,517.93L3109.94,518.437L3118.72,520.908L3126.83,525.53L3134.42,533.136L3139.28,541.526C3142.07,547.89 3143.74,556.002 3143.86,565.472C3144.35,603.538 3115.39,675.322 3112.15,690.23C3093.82,774.475 3092.6,872.395 3100.97,958.043C3113.98,1091.01 3150.78,1260.13 3149.35,1417.33C3148.36,1526.63 3128.88,1630.24 3073.03,1713.65C3027.18,1782.12 2962.05,1831.06 2892.81,1873.74C2881.06,1880.98 2865.65,1877.32 2858.41,1865.57C2851.17,1853.83 2854.83,1838.41 2866.57,1831.17C2929.72,1792.26 2989.67,1748.27 3031.48,1685.83C3082.11,1610.22 3098.45,1515.96 3099.35,1416.88C3100.76,1261.49 3064.07,1094.35 3051.21,962.909C3042.35,872.302 3043.9,768.721 3063.29,679.597C3065.53,669.337 3080.77,631.21 3089.15,596.903C3091.32,588.049 3093,579.499 3093.63,571.97C3093.68,571.398 3093.71,570.787 3093.73,570.158Z"/>
    <g transform="matrix(0.663612,0.074051,-0.0974444,0.873254,1379.38,-238.522)">
        <path d="M3835.21,103.713C3851.9,103.713 3868.41,110.812 3882.28,125.047C3907.22,150.656 3925.18,202.089 3925.18,261.508C3925.18,320.928 3907.22,372.36 3882.28,397.969C3868.41,412.205 3851.9,419.303 3835.21,419.303C3818.53,419.303 3802.02,412.205 3788.15,397.969C3763.21,372.36 3745.25,320.928 3745.25,261.508C3745.25,202.089 3763.21,150.656 3788.15,125.047C3802.02,110.812 3818.53,103.713 3835.21,103.713ZM3835.21,116.359C3794.74,116.359 3761.89,181.398 3761.89,261.508C3761.89,341.618 3794.74,406.658 3835.21,406.658C3875.68,406.658 3908.54,341.618 3908.54,261.508C3908.54,181.398 3875.68,116.359 3835.21,116.359Z"/>
    </g>
    <g transform="matrix(1.09109,0.121753,-0.130468,1.1692,-250.061,-500.654)">
        <path d="M3835.21,111.637C3852.88,111.637 3869.52,122.598 3882.76,141.826C3901.37,168.831 3913.6,212.381 3913.6,261.508C3913.6,310.635 3901.37,354.186 3882.76,381.191C3869.52,400.418 3852.88,411.38 3835.21,411.38C3817.54,411.38 3800.91,400.418 3787.66,381.191C3769.06,354.186 3756.83,310.635 3756.83,261.508C3756.83,212.381 3769.06,168.831 3787.66,141.826C3800.91,122.598 3817.54,111.637 3835.21,111.637ZM3835.21,121.081C3820.51,121.081 3807.2,130.93 3796.18,146.934C3778.37,172.772 3766.95,214.503 3766.95,261.508C3766.95,308.513 3778.37,350.244 3796.18,376.083C3807.2,392.086 3820.51,401.935 3835.21,401.935C3849.92,401.935 3863.23,392.086 3874.25,376.083C3892.06,350.244 3903.48,308.513 3903.48,261.508C3903.48,214.503 3892.06,172.772 3874.25,146.934C3863.23,130.93 3849.92,121.081 3835.21,121.081Z"/>
    </g>
    <g transform="matrix(0.981132,0.00612541,0.00612426,0.99801,71.5283,-23.1909)">
        <path d="M3897.74,100.137C3905.23,97.847 3913.12,101.939 3915.36,109.271C3917.6,116.602 3913.34,124.415 3905.85,126.705L3386.3,285.7C3378.82,287.991 3370.92,283.898 3368.68,276.567C3366.45,269.235 3370.71,261.423 3378.19,259.132L3897.74,100.137Z"/>
    </g>
    <g transform="matrix(0.970841,0.00248193,0.00246224,0.999601,112.089,303.265)">
        <path d="M3900.93,103.468C3908.81,102.967 3915.6,108.773 3916.07,116.426C3916.55,124.078 3910.54,130.697 3902.66,131.198L3439.18,160.663C3431.3,161.164 3424.51,155.358 3424.04,147.706C3423.56,140.053 3429.57,133.434 3437.45,132.933L3900.93,103.468Z"/>
    </g>
    <path d="M3756,158.052L3763.11,145.992L3787.23,160.214L3780.12,172.273C3764.88,198.119 3761.2,227.476 3761.66,257.045C3762.54,314.049 3772.63,381.461 3820.03,419.067L3831,427.769L3813.6,449.704L3802.63,441.003C3748.67,398.191 3734.67,322.374 3733.66,257.481C3733.12,222.749 3738.1,188.41 3756,158.052Z"/>
    <path d="M3465.62,249.183C3466.27,241.483 3473.05,235.762 3480.75,236.415C3488.45,237.067 3494.17,243.847 3493.52,251.546C3492.26,266.393 3490.51,281.159 3491.23,296.089C3493.74,347.833 3512.28,400.527 3549.17,437.433C3554.64,442.898 3554.63,451.769 3549.17,457.232C3543.7,462.694 3534.83,462.692 3529.37,457.228C3487.61,415.452 3466.1,356.016 3463.26,297.443C3462.48,281.269 3464.26,265.266 3465.62,249.183Z"/>
    <path d="M3382.13,284.764C3381.48,284.544 3380.8,284.327 3380.16,284.132C3373.14,281.993 3363.71,284.108 3353.72,286.95C3334.53,292.413 3313.94,302.017 3300.52,306.486C3255.62,321.432 3209.44,333.046 3163.24,343.215C3141.69,347.958 3104.78,357.192 3083.42,362.707L3069.86,366.206L3062.86,339.095L3076.42,335.596C3098.05,330.013 3135.41,320.671 3157.22,315.869C3202.47,305.911 3247.7,294.557 3291.67,279.92C3305.39,275.353 3326.45,265.601 3346.06,260.019C3361.96,255.495 3377.13,253.94 3388.32,257.345C3399.64,260.792 3404.4,264.342 3406.84,267.653L3408.79,270.96L3409.97,274.345L3410.52,282.098C3410.19,287.55 3408,297.339 3411.15,317.801C3417.12,356.605 3427.68,390.098 3449.94,417.638C3459.48,429.447 3466.4,445.858 3464.02,461.898C3462.35,473.18 3456.41,484.622 3442.99,494.303C3433.86,500.892 3419.68,505.314 3403.99,507.852C3383.64,511.144 3360.64,511.633 3346.2,512.519C3333.46,513.301 3224.46,519.595 3216.6,520.459C3184.33,524.012 3145,526.278 3112.54,526.016L3098.54,525.902L3098.77,497.903L3112.77,498.017C3144.2,498.271 3182.29,496.067 3213.54,492.628C3221.48,491.754 3331.61,485.362 3344.49,484.571C3358.24,483.728 3380.14,483.346 3399.52,480.211C3410.32,478.464 3420.32,476.135 3426.6,471.6C3432.47,467.367 3435.6,462.72 3436.33,457.787C3437.56,449.505 3433.09,441.334 3428.16,435.237C3402.88,403.949 3390.25,366.141 3383.47,322.057C3381.21,307.366 3381.25,297.271 3381.71,290.138C3381.83,288.276 3381.98,286.39 3382.13,284.764Z"/>
    <g transform="matrix(0.871194,0.219829,-0.273541,1.08406,396.198,-635.21)">
        <ellipse cx="2689" cy="467" rx="59" ry="64"/>
    </g>
    <g transform="matrix(0.871194,0.219829,-0.273541,1.08406,396.198,-635.21)">
        <path d="M2689,403C2721.56,403 2748,431.677 2748,467C2748,502.323 2721.56,531 2689,531C2656.44,531 2630,502.323 2630,467C2630,431.677 2656.44,403 2689,403ZM2689,427.845C2682.17,427.845 2676.61,431.686 2672.13,436.544C2664.96,444.318 2660.92,455.148 2660.92,467C2660.92,478.852 2664.96,489.682 2672.13,497.456C2676.61,502.314 2682.17,506.155 2689,506.155C2695.83,506.155 2701.39,502.314 2705.87,497.456C2713.04,489.682 2717.08,478.852 2717.08,467C2717.08,455.148 2713.04,444.318 2705.87,436.544C2701.39,431.686 2695.83,427.845 2689,427.845Z"/>
    </g>
    <path d="M2278.22,1174.12C2264.91,1170.48 2257.06,1156.72 2260.7,1143.41C2264.34,1130.1 2278.1,1122.25 2291.41,1125.89C2312.57,1131.67 2334.29,1132.93 2356.08,1134.21C2411.76,1137.45 2468.06,1132.27 2518.87,1107.45C2531.26,1101.39 2546.25,1106.54 2552.3,1118.93C2558.36,1131.33 2553.22,1146.31 2540.82,1152.37C2482.2,1181.01 2417.4,1187.87 2353.17,1184.12C2327.9,1182.65 2302.76,1180.83 2278.22,1174.12Z"/>
    <path d="M1791.73,2757.11L1808.4,2709.97C1968.49,2766.59 2233.89,2773.91 2386.81,2690.51C2420.48,2672.15 2448.38,2646.43 2476.14,2620.61C2506.71,2592.18 2537.11,2563.58 2572.98,2542.07C2612.4,2518.42 2657.04,2511.53 2699.46,2501.09C2733.99,2492.59 2767.08,2481.62 2791.33,2448.92C2813.62,2418.87 2814.68,2385.99 2814.53,2353.5C2814.34,2312.18 2812.3,2271.14 2829.22,2233.59C2846.24,2195.8 2880.18,2167.69 2899.43,2130.68C2936.85,2058.69 2951.03,1884.57 2930.91,1806.11L2979.34,1793.68C3001.67,1880.74 2985.32,2073.87 2943.79,2153.74C2924.97,2189.93 2891.45,2217.18 2874.81,2254.12C2860.85,2285.11 2864.38,2319.17 2864.53,2353.26C2864.73,2396.18 2860.93,2439.01 2831.49,2478.7C2799.47,2521.87 2756.99,2538.42 2711.41,2549.64C2673.72,2558.92 2633.72,2563.94 2598.7,2584.94C2565.83,2604.66 2538.21,2631.17 2510.19,2657.22C2479.38,2685.88 2448.12,2714.03 2410.75,2734.41C2247.07,2823.67 1963.07,2817.71 1791.73,2757.11Z"/>
    <path d="M3021.47,1963.33L2974.53,1980.55L2941.53,1890.61L2988.47,1873.39L3021.47,1963.33Z"/>
    <path d="M3095.5,673.926C3085.41,664.516 3084.86,648.684 3094.27,638.593C3103.68,628.502 3119.51,627.949 3129.6,637.359C3167.19,672.411 3232.64,729.337 3283.66,738.217C3308.45,742.532 3333.92,745.801 3359.16,745.131C3379.13,744.601 3403.21,742.136 3425.11,745.711C3443.78,748.759 3460.99,755.858 3474.8,769.359C3538.8,831.952 3494.67,902.048 3445.7,953.216C3376.7,1025.31 3300.63,1078.95 3201.01,1099.63C3170.7,1105.92 3139.89,1104.03 3109.14,1106.36C3095.39,1107.4 3083.37,1097.08 3082.33,1083.32C3081.28,1069.56 3091.61,1057.54 3105.37,1056.5C3133.96,1054.33 3162.66,1056.52 3190.84,1050.67C3280.1,1032.14 3347.75,983.24 3409.58,918.643C3423.94,903.642 3438.76,886.711 3448.17,868.694C3458.88,848.19 3461.19,825.99 3439.84,805.105C3431.59,797.041 3420.31,794.972 3408.88,794.106C3392.37,792.856 3375.17,794.724 3360.48,795.114C3331.95,795.872 3303.12,792.356 3275.09,787.476C3216.22,777.23 3138.88,714.372 3095.5,673.926Z"/>
    <path d="M2642.44,3344.79C2643.68,3333.82 2653.6,3325.93 2664.57,3327.17C2675.53,3328.41 2683.43,3338.32 2682.19,3349.29C2679.17,3375.96 2680.1,3403.31 2680.53,3430.09C2681.59,3496.17 2682.46,3551.34 2751.01,3580.86C2762.4,3585.77 2775.07,3589.2 2787.51,3589.64C2824.35,3590.95 2858.84,3579.95 2893.45,3569.31C2904.14,3566.02 2918.52,3562.03 2932.05,3561.64C2944.06,3561.29 2955.47,3563.71 2964.78,3569.7C2985.37,3582.94 2989.97,3599.58 2989.51,3617.48C2989.32,3624.88 2988.01,3632.55 2987.15,3640.14C2986.51,3645.83 2985.31,3651.57 2988.69,3656.47C2992.79,3662.4 2999.35,3666.56 3006.14,3670.68C3015.9,3676.59 3026.37,3682.02 3035.24,3688.39C3051.73,3700.24 3063.2,3715.15 3063.75,3737.01C3064.25,3756.83 3049.09,3773.45 3025.37,3785.35C3013.51,3791.31 2999.66,3796.54 2987.64,3802.13C2979.99,3805.69 2972.78,3808.41 2969.89,3813.17C2966.62,3818.53 2969.68,3822.61 2972.59,3826.54C2977.77,3833.55 2984.28,3840.16 2989.08,3846.95C2995.7,3856.3 2999.58,3866.14 2999.29,3876.48C2999.01,3886.71 2994.97,3898.29 2982.04,3910.62C2964.81,3927.05 2948,3929.59 2929.76,3928.1C2921.23,3927.4 2912.29,3925.56 2902.62,3924.79C2892.83,3924.01 2882.76,3925.43 2873.02,3926.4C2805.12,3933.13 2735.95,3936.53 2667.64,3935.24C2618.92,3934.32 2578.53,3935.06 2544.57,3895.99C2513.39,3860.12 2488.17,3802.92 2502.97,3754.09C2509.34,3733.04 2520.4,3713.76 2530.75,3694.26C2539.38,3678.02 2547.58,3661.65 2550.02,3643.15C2559.81,3568.78 2534.63,3481.78 2523.15,3408.47C2521.44,3397.57 2528.91,3387.33 2539.81,3385.62C2550.72,3383.91 2560.96,3391.38 2562.67,3402.29C2574.7,3479.12 2599.93,3570.43 2589.68,3648.37C2586.61,3671.68 2576.95,3692.56 2566.08,3713.03C2556.94,3730.23 2546.88,3747.11 2541.25,3765.68C2530.31,3801.78 2551.71,3843.23 2574.75,3869.74C2600.27,3899.1 2631.79,3894.56 2668.39,3895.25C2735.14,3896.51 2802.73,3893.17 2869.08,3886.59C2881.15,3885.39 2893.65,3883.95 2905.79,3884.92C2915.5,3885.69 2924.46,3887.53 2933.02,3888.23C2940.43,3888.84 2947.43,3888.35 2954.43,3881.67C2957.16,3879.08 2959.35,3877.54 2959.31,3875.4C2959.26,3872.94 2957.22,3871.07 2955.55,3868.84C2951.93,3864.02 2947.52,3859.3 2943.57,3854.39C2929.21,3836.55 2920.66,3817.08 2935.73,3792.35C2940.19,3785.02 2947.93,3778.19 2958.12,3772.34C2968.92,3766.13 2982.91,3760.62 2996.18,3754.82C3003.51,3751.61 3010.6,3748.33 3016.4,3744.56C3018.33,3743.3 3020.1,3742.01 3021.59,3740.6C3022.52,3739.73 3023.79,3739.2 3023.76,3738.01C3023.48,3726.64 3013.68,3721.61 3004.3,3715.92C2986.44,3705.09 2966.63,3694.91 2955.78,3679.2C2945.87,3664.86 2945.72,3648.48 2947.88,3631.82C2948.49,3627.07 2949.24,3622.32 2949.48,3617.68C2949.74,3612.4 2949.18,3607.22 2943.14,3603.34C2939.24,3600.83 2934.06,3601.36 2928.97,3601.93C2920.43,3602.88 2911.88,3605.49 2905.2,3607.55C2866.33,3619.49 2827.46,3631.09 2786.09,3629.62C2768.76,3629.01 2751.05,3624.43 2735.2,3617.6C2648.91,3580.45 2641.87,3513.9 2640.53,3430.74C2640.07,3402.24 2639.23,3373.16 2642.44,3344.79Z"/>
    <path d="M2671.97,3566.44C2671.97,3555.4 2680.93,3546.44 2691.97,3546.44C2703,3546.44 2711.97,3555.4 2711.97,3566.44C2711.97,3595.19 2717.01,3625.53 2740.11,3644.74C2747.08,3650.54 2755.74,3654.26 2763.89,3658.09C2773.88,3662.78 2778.18,3674.71 2773.48,3684.7C2768.79,3694.69 2756.87,3698.99 2746.88,3694.29C2735.7,3689.03 2724.1,3683.45 2714.53,3675.49C2682.04,3648.47 2671.97,3606.89 2671.97,3566.44Z"/>
    <path d="M1820.77,3439.43C1822.94,3428.61 1833.49,3421.59 1844.32,3423.76C1855.14,3425.94 1862.16,3436.49 1859.99,3447.31C1845.09,3521.46 1827.24,3594.9 1813.19,3669.26C1810.29,3684.6 1805.64,3702.21 1804.05,3719.62C1802.81,3733.22 1803.2,3746.78 1810.26,3758.08C1821.49,3776.06 1842.64,3781.79 1864.9,3784.18C1892.5,3787.15 1922.32,3784.14 1945.17,3783.02C1960.76,3782.25 1985.06,3785.33 2004.28,3794.25C2020.26,3801.66 2032.65,3813.11 2037.88,3827.83C2045.17,3848.39 2037.93,3866.01 2024.58,3883.02C2019.37,3889.66 2013.22,3896.28 2007.9,3903.38C2002.86,3910.12 1998.12,3917.21 1999.25,3926.32C1999.74,3930.31 2002.03,3933.86 2004.36,3937.49C2008.45,3943.83 2013.28,3950.02 2017.19,3956.32C2025.2,3969.25 2029.51,3982.78 2026.2,3997.46C2020.78,4021.5 2002.82,4041.13 1978.81,4055.23C1947.38,4073.67 1905.79,4082.7 1878.17,4083.17C1816.96,4084.2 1795.26,4069.69 1740.98,4052.31C1695.64,4037.79 1636.22,4024.69 1588.87,3998.43C1553.87,3979.03 1525.27,3952.62 1510.88,3915.03C1484.43,3845.94 1514.85,3806.12 1556.74,3755.04C1573.26,3734.9 1588.51,3713.66 1603.13,3692.11C1653.01,3618.6 1678.42,3530.13 1682.88,3441.6C1683.44,3430.58 1692.84,3422.08 1703.86,3422.63C1714.89,3423.19 1723.39,3432.59 1722.83,3443.61C1718,3539.4 1690.19,3635.03 1636.24,3714.57C1620.93,3737.11 1604.96,3759.33 1587.67,3780.41C1555.8,3819.27 1528.12,3848.16 1548.24,3900.72C1562.13,3937.03 1594.4,3958.56 1630.57,3974.41C1671.12,3992.18 1716.89,4002.59 1753.18,4014.22C1802.45,4029.99 1821.93,4044.12 1877.49,4043.17C1899.73,4042.79 1933.25,4035.59 1958.56,4020.73C1972.38,4012.62 1984.06,4002.48 1987.18,3988.65C1987.96,3985.23 1986.05,3982.31 1984.32,3979.28C1981.76,3974.8 1978.5,3970.44 1975.39,3966.01C1967.65,3954.99 1961.06,3943.48 1959.55,3931.22C1956.3,3904.94 1971.03,3884.62 1986.59,3866.23C1990.72,3861.35 1994.79,3856.65 1997.78,3851.76C1999.81,3848.45 2001.58,3845.15 2000.18,3841.21C1998.35,3836.06 1993.03,3833.12 1987.44,3830.53C1974.34,3824.45 1957.76,3822.45 1947.14,3822.97C1917.18,3824.44 1876.26,3828.34 1841.75,3820.98C1814.36,3815.14 1790.81,3802.45 1776.34,3779.28C1766.79,3764 1763.33,3746.52 1763.55,3728.34C1763.83,3705.74 1770.08,3681.97 1773.88,3661.83C1787.97,3587.32 1805.85,3513.74 1820.77,3439.43Z"/>
    <path d="M1788.78,3794.11C1783.64,3784.35 1787.39,3772.24 1797.16,3767.1C1806.93,3761.95 1819.03,3765.7 1824.18,3775.47C1838.61,3802.87 1855.58,3825.53 1880.31,3844.6C1889.05,3851.34 1890.67,3863.9 1883.93,3872.65C1877.2,3881.39 1864.63,3883.01 1855.88,3876.28C1826.42,3853.56 1805.97,3826.75 1788.78,3794.11Z"/>
</svg>
